<svg width="39" height="24" viewBox="0 0 39 24" fill="none" xmlns="http://www.w3.org/2000/svg">
<path d="M5.0565 12.8468C6.57514 12.8468 7.97064 13.5035 8.91465 14.5707L9.28405 14.1602L6.452 11.7797C6.00052 11.4103 5.4259 11.164 4.85128 11.0819H4.81024C4.0304 10.9998 3.25056 11.2461 2.67595 11.7386C2.2655 12.108 2.06028 12.2722 1.48566 12.7647L0.418518 12.6005L2.6349 10.1789C2.75803 10.0148 2.88116 9.85059 2.92221 9.64537C3.00429 9.31702 2.92221 8.94762 2.71698 8.66031C2.2655 8.0857 1.52671 7.10063 1.52671 6.93646C1.52671 6.69019 0.377476 4.5559 0.746872 4.14546C0.952091 3.85815 7.60124 6.03348 10.4743 6.27975C13.3064 6.56706 16.3436 5.99244 16.7951 6.15662C17.1235 6.27975 18.1906 7.51108 18.8063 8.41405C18.9705 8.66031 18.8884 9.0297 18.6011 9.15284C18.6421 11.0819 17.0414 12.6826 17.0414 12.6826C17.0414 12.6826 16.5899 17.8132 25.0039 16.8691C25.4554 16.8281 26.0301 10.9998 26.0301 10.9998C26.1532 9.3991 25.7427 7.88047 25.7427 7.88047L24.0599 4.59694C23.4443 3.40666 23.1159 1.88803 23.1159 1.88803L21.351 2.13429C21.1458 2.13429 20.9816 2.01116 20.9406 1.84699C20.8995 1.64177 21.0227 1.43654 21.2689 1.3955L23.1159 1.06715C23.1159 1.06715 23.1159 1.06715 23.157 0.861929C23.198 0.656709 24.9219 0.902963 24.9219 0.902963C24.9219 0.902963 27.5076 0 28.6158 0C29.3957 0 29.1494 2.74995 28.8621 3.4477C28.739 3.69397 28.4517 3.85815 28.1233 3.94024C28.2054 3.98128 30.627 5.37678 32.474 7.38794C33.9926 9.02971 35.306 10.9998 35.9627 12.067C36.0859 12.3132 35.8806 12.6005 35.6344 12.4774C34.4031 12.0259 33.1717 12.108 32.7202 12.6416C32.6382 12.7237 32.5561 12.8468 32.4329 12.9699C32.8434 12.8468 33.2949 12.8058 33.7874 12.8058C36.6605 12.8058 39 15.1453 39 18.0184C39 20.8915 36.6605 23.231 33.7874 23.231C30.9143 23.231 28.5748 20.8915 28.5748 18.0184C28.5748 17.9773 28.5748 17.9363 28.5748 17.8952C28.2464 18.9624 28.3285 20.1116 28.2875 20.2348C28.2054 20.44 27.0562 20.1527 26.933 20.1527C26.8509 20.1527 21.351 20.2348 17.7391 20.2758C15.728 20.2758 13.7168 19.8243 11.9109 18.8393C11.9109 18.8393 11.2131 19.0034 10.2691 19.1676C9.73553 21.4661 7.68333 23.1899 5.22068 23.1899C2.34759 23.1899 0.00807571 20.8915 0.00807571 18.0184C-0.156101 15.1863 2.18341 12.8468 5.0565 12.8468ZM33.6643 21.3019C35.4702 21.3019 36.9067 19.8243 36.9067 18.0594C36.9067 16.2535 35.4292 14.8169 33.6643 14.8169C31.8583 14.8169 30.3807 16.2945 30.4218 18.0594C30.3807 19.8243 31.8583 21.3019 33.6643 21.3019ZM5.0565 21.3019C6.28783 21.3019 7.35497 20.6452 7.88855 19.6191C6.32887 19.9064 4.72815 20.1527 4.19458 20.1527C3.0043 20.1116 2.96325 17.4027 2.96325 17.4027C2.96325 17.4027 2.2655 17.6079 1.81401 17.4438C1.77297 17.649 1.77298 17.8132 1.77298 18.0184C1.77298 19.8243 3.25056 21.3019 5.0565 21.3019Z" fill="#333333"/>
</svg>
