<svg xmlns="http://www.w3.org/2000/svg" fill="none" viewBox="1.16 10.31 43.98 25.67">
<path d="M38.1519 22.1511C37.8281 22.1511 37.5044 22.1974 37.1807 22.2436L33.3424 11.1911C33.1574 10.6825 32.6487 10.3125 32.0938 10.3125H29.4116C28.6717 10.3125 28.1168 10.9137 28.1168 11.6074C28.1168 12.3473 28.718 12.9022 29.4116 12.9022H31.1689L32.0938 15.5381C32.0013 15.4919 31.9088 15.4457 31.7701 15.3532C28.6255 13.8733 24.0935 14.2433 22.4749 16.6943C21.2726 18.4978 18.1742 18.0354 15.307 17.5267C14.6133 17.3879 14.4284 16.1856 13.6884 15.9543C10.7288 15.0757 6.61301 14.9832 4.57825 15.0757C4.06956 15.1219 3.74584 15.7231 4.02331 16.1856L5.59563 18.7753C5.73436 19.0527 6.01183 19.2377 6.2893 19.3302L7.67664 19.8851L10.4513 20.8563C12.6248 21.5037 14.4284 22.9835 15.5382 24.9258L14.0122 25.4807C12.8098 23.446 10.5901 22.1049 8.09284 22.1049C4.30078 22.1049 1.15614 25.2033 1.15614 29.0416C1.15614 32.8799 4.25453 35.9783 8.09284 35.9783C11.9311 35.9783 15.0295 32.8799 15.0295 29.0416C15.0295 28.6716 14.9833 28.3017 14.937 27.978L16.4631 27.423C16.5556 27.9317 16.6019 28.4866 16.6019 29.0416C16.6019 29.6428 16.5556 30.2439 16.4169 30.7989H29.8741C29.7353 30.2439 29.6891 29.6428 29.6891 29.0416C29.6891 25.8045 31.5389 22.9835 34.2211 21.5499L34.7298 23.076C32.6487 24.2784 31.2614 26.4981 31.2614 29.0416C31.2614 32.8336 34.3598 35.9783 38.1981 35.9783C42.0364 35.9783 45.1348 32.8799 45.1348 29.0416C45.1348 25.2033 41.9902 22.1511 38.1519 22.1511ZM12.3936 29.0416C12.3936 31.4001 10.4513 33.3423 8.09284 33.3423C5.73436 33.3423 3.79209 31.4463 3.79209 29.0416C3.79209 26.6369 5.73436 24.7408 8.09284 24.7408C9.48018 24.7408 10.6825 25.3883 11.4687 26.4056L7.63039 27.793C6.93672 28.0242 6.61301 28.8104 6.84423 29.4578C7.02921 30.0127 7.5379 30.3364 8.09284 30.3364C8.23157 30.3364 8.37031 30.2902 8.55529 30.2439L12.3936 28.8566C12.3473 28.9491 12.3936 28.9953 12.3936 29.0416ZM38.1519 33.3423C35.7934 33.3423 33.8511 31.4001 33.8511 29.0416C33.8511 27.6542 34.5448 26.4056 35.5622 25.6195L36.9033 29.4578C37.0882 30.0127 37.5969 30.3364 38.1519 30.3364C38.2906 30.3364 38.4293 30.2902 38.5681 30.2439C39.2617 30.0127 39.6317 29.2728 39.3542 28.5791L38.0131 24.7408C38.0594 24.7408 38.0594 24.7408 38.1056 24.7408C40.4641 24.7408 42.4064 26.6831 42.4064 29.0416C42.4064 31.4001 40.5566 33.3423 38.1519 33.3423Z" fill="#333333"/>
<path d="M39.2155 18.6366H40.1404C40.5103 18.6366 40.7878 18.3591 40.7878 17.9892V13.3647C40.7878 12.9948 40.5103 12.7173 40.1404 12.7173H39.0767C37.3657 12.7173 35.9321 14.1971 36.1171 16.0007C36.302 17.5267 37.6894 18.6366 39.2155 18.6366Z" fill="#333333"/>
</svg>