<svg width="44" height="26" viewBox="0 0 44 26" fill="none" xmlns="http://www.w3.org/2000/svg">
<path d="M36.9217 12.0459C35.7179 12.0459 34.5842 12.3548 33.5986 12.8978L32.785 12.0109C34.3199 11.1367 36.3612 10.6622 39.0808 10.7625C40.3467 10.8087 40.455 3.47307 31.1131 0.90951C29.1275 0.364951 30.7357 3.08774 30.5813 4.63703C30.5813 4.63703 22.0769 0.116555 18.9433 5.7962C17.773 7.91712 17.5023 8.93299 14.4197 8.93299C11.337 8.93299 12.5965 6.27867 8.53779 6.22771C5.98537 6.19587 3.36767 7.406 3.62561 8.37251C3.83739 9.16387 10.9262 9.49188 13.6936 14.8419C13.3703 14.9884 13.0599 15.1269 12.7589 15.2607C11.5313 13.3293 9.37214 12.0443 6.91844 12.0443C3.10335 12.0443 0 15.1476 0 18.9627C0 22.7778 3.10335 25.8828 6.91844 25.8828C9.99472 25.8828 12.6045 23.8654 13.5041 21.0852C15.5756 21.4324 17.3112 21.6569 17.3112 21.6569C17.3112 21.6569 28.0989 23.6154 28.2581 21.4499C28.4779 18.4564 29.102 15.5585 30.8981 13.5363L31.7086 14.4216C30.6465 15.6381 30.0017 17.2272 30.0017 18.9643C30.0017 22.7794 33.105 25.8844 36.9217 25.8844C40.7368 25.8844 43.8401 22.7794 43.8401 18.9643C43.8401 15.1492 40.7352 12.0459 36.9217 12.0459ZM6.92003 22.5629C4.93606 22.5629 3.32149 20.9483 3.32149 18.9643C3.32149 16.9804 4.93606 15.3674 6.92003 15.3674C8.0187 15.3674 9.00432 15.8642 9.66512 16.6428C7.26874 17.7351 6.34841 18.3115 6.64616 19.1267C6.81176 19.5805 8.34034 20.0487 10.1922 20.4563C9.62213 21.6967 8.37219 22.5629 6.92003 22.5629ZM36.9217 22.5629C34.9377 22.5629 33.3232 20.9483 33.3232 18.9643C33.3232 18.1969 33.5668 17.4851 33.9792 16.8991L35.6909 18.7669C35.9409 19.0392 36.3628 19.0583 36.6351 18.8083L37.436 18.0742C37.7083 17.8243 37.7274 17.4023 37.4774 17.13L35.9791 15.4948C36.2784 15.4136 36.5953 15.3658 36.9217 15.3658C38.9057 15.3658 40.5202 16.9804 40.5202 18.9627C40.5202 20.9483 38.9057 22.5629 36.9217 22.5629Z" fill="#333333"/>
</svg>
