<svg width="50" height="63" viewBox="0 0 50 63" fill="none" xmlns="http://www.w3.org/2000/svg">
<path d="M41.25 24.1416C40.9 24.1416 40.55 24.192 40.2 24.2424L36.05 12.1968C35.85 11.6424 35.3 11.2392 34.7 11.2392H31.8C31 11.2392 30.4 11.8944 30.4 12.6504C30.4 13.4568 31.05 14.0616 31.8 14.0616H33.7L34.7 16.9344C34.6 16.884 34.5 16.8336 34.35 16.7328C30.95 15.12 26.05 15.5232 24.3 18.1944C23 20.16 19.65 19.656 16.55 19.1016C15.8 18.9504 15.6 17.64 14.8 17.388C11.6 16.4304 7.15003 16.3296 4.95003 16.4304C4.40003 16.4808 4.05003 17.136 4.35003 17.64L6.05003 20.4624C6.20003 20.7648 6.50003 20.9664 6.80003 21.0672L8.30003 21.672L11.3 22.7304C13.65 23.436 15.6 25.0488 16.8 27.1656L15.15 27.7704C13.85 25.5528 11.45 24.0912 8.75003 24.0912C4.65003 24.0912 1.25003 27.468 1.25003 31.6512C1.25003 35.8344 4.60003 39.2112 8.75003 39.2112C12.9 39.2112 16.25 35.8344 16.25 31.6512C16.25 31.248 16.2 30.8448 16.15 30.492L17.8 29.8872C17.9 30.4416 17.95 31.0464 17.95 31.6512C17.95 32.3064 17.9 32.9616 17.75 33.5664H32.3C32.15 32.9616 32.1 32.3064 32.1 31.6512C32.1 28.1232 34.1 25.0488 37 23.4864L37.55 25.1496C35.3 26.46 33.8 28.8792 33.8 31.6512C33.8 35.784 37.15 39.2112 41.3 39.2112C45.45 39.2112 48.8 35.8344 48.8 31.6512C48.8 27.468 45.4 24.1416 41.25 24.1416ZM13.4 31.6512C13.4 34.2216 11.3 36.3384 8.75003 36.3384C6.20003 36.3384 4.10003 34.272 4.10003 31.6512C4.10003 29.0304 6.20003 26.964 8.75003 26.964C10.25 26.964 11.55 27.6696 12.4 28.7784L8.25003 30.2904C7.50003 30.5424 7.15003 31.3992 7.40003 32.1048C7.60003 32.7096 8.15003 33.0624 8.75003 33.0624C8.90003 33.0624 9.05003 33.012 9.25003 32.9616L13.4 31.4496C13.35 31.5504 13.4 31.6008 13.4 31.6512ZM41.25 36.3384C38.7 36.3384 36.6 34.2216 36.6 31.6512C36.6 30.1392 37.35 28.7784 38.45 27.9216L39.9 32.1048C40.1 32.7096 40.65 33.0624 41.25 33.0624C41.4 33.0624 41.55 33.012 41.7 32.9616C42.45 32.7096 42.85 31.9032 42.55 31.1472L41.1 26.964C41.15 26.964 41.15 26.964 41.2 26.964C43.75 26.964 45.85 29.0808 45.85 31.6512C45.85 34.2216 43.85 36.3384 41.25 36.3384Z" fill="#FF7A00"/>
<path d="M42.4 20.3112H43.4C43.8 20.3112 44.1 20.0088 44.1 19.6056V14.5656C44.1 14.1624 43.8 13.86 43.4 13.86H42.25C40.4 13.86 38.85 15.4728 39.05 17.4384C39.25 19.1016 40.75 20.3112 42.4 20.3112Z" fill="#FF7A00"/>
</svg>
