<svg width="43" height="54" viewBox="0 0 43 54" fill="none" xmlns="http://www.w3.org/2000/svg">
<path d="M14.8318 13.3429V11.2925H20.287C20.9609 11.3441 21.4743 11.9244 21.4743 12.6079C21.4743 13.2849 20.9609 13.8523 20.287 13.9039V13.9168C20.9609 13.9683 21.4743 14.5357 21.4743 15.2192C21.4743 15.9027 20.9609 16.4701 20.287 16.5217V16.5346C20.9609 16.5926 21.4743 17.1535 21.4743 17.837C21.4743 18.5205 20.9609 19.0879 20.287 19.1395V19.1524C20.9609 19.2039 21.4743 19.7778 21.4743 20.4548C21.4743 21.1318 20.9609 21.7056 20.287 21.7572V21.8411C21.1855 22.1441 22.007 22.589 22.7322 23.1629L21.301 23.956C20.8389 24.2009 20.5502 24.691 20.5502 25.2261C20.5502 25.7549 20.8389 26.2449 21.3075 26.4963L24.0672 28.018L25.5818 30.8035C25.8128 31.229 26.2364 31.5063 26.7113 31.5514C26.7434 31.9769 26.7627 32.4154 26.7627 32.8603C26.7627 36.7805 26.3712 40.2494 23.7848 42.3127H11.9951C9.40864 40.2494 7.70149 36.7805 7.70149 32.8603C7.70149 28.5468 9.75523 22.2021 12.7652 18.7203C14.0616 17.218 14.8318 15.3353 14.8318 13.3429Z" fill="#FF7A00"/>
<path d="M28.8164 7.3465L26.6921 7.57216V4.12262L28.8164 4.35473C29.0603 4.38051 29.2464 4.58684 29.2464 4.83186V6.86937C29.2464 7.11435 29.0603 7.32068 28.8164 7.3465Z" fill="#FF7A00"/>
<path d="M26.0567 13.1302C25.7743 13.2269 25.4984 13.2785 25.2224 13.2785C23.5108 13.2785 21.641 10.9011 21.3846 8.5005C20.4032 8.59657 19.6265 9.35752 19.5426 10.3641C19.5169 10.6156 19.3115 10.809 19.0612 10.809H16.3272C16.0769 10.809 15.8651 10.6156 15.8458 10.3641C15.756 9.28735 14.8703 8.48138 13.7985 8.48138H13.529C13.5226 8.48138 13.5161 8.48138 13.5161 8.48138C13.2466 8.48138 13.0348 8.26214 13.0348 7.9978C13.0348 7.95266 13.0348 7.91397 13.0476 7.87529C13.1054 5.23168 15.2682 3.09747 17.9188 3.09747H25.2481C25.5112 3.09747 25.7294 3.31026 25.7294 3.58106V7.9978C25.7294 8.26214 25.5112 8.48138 25.2481 8.48138H24.3107C24.4339 10.1954 25.2092 11.9077 26.0567 12.2211C26.2429 12.292 26.3712 12.4725 26.3712 12.6724C26.3712 12.8787 26.2429 13.0593 26.0567 13.1302Z" fill="#FF7A00"/>
<path d="M38.3087 6.33301H30.6448C30.3791 6.33301 30.1635 6.1164 30.1635 5.84943C30.1635 5.58245 30.3791 5.36584 30.6448 5.36584H38.3087C38.5745 5.36584 38.7901 5.58245 38.7901 5.84943C38.7901 6.1164 38.5745 6.33301 38.3087 6.33301Z" fill="#FF7A00"/>
<path d="M36.8728 1.81896L30.8253 4.28063C30.5812 4.37977 30.2991 4.26312 30.1986 4.01396C30.0989 3.76651 30.2174 3.48442 30.4643 3.38399L36.5118 0.922313C36.7563 0.823141 37.0389 0.941203 37.1386 1.18898C37.2382 1.43643 37.1198 1.71852 36.8728 1.81896Z" fill="#FF7A00"/>
<path d="M30.8253 7.41856L36.8728 9.88024C37.1198 9.98067 37.2382 10.2628 37.1386 10.5102C37.0381 10.7592 36.7562 10.8761 36.5118 10.7769L30.4643 8.31521C30.2174 8.21478 30.0989 7.93269 30.1986 7.68523C30.2989 7.43745 30.5803 7.31813 30.8253 7.41856Z" fill="#FF7A00"/>
<path d="M26.429 30.3393L24.7796 27.3024L21.7631 25.6453C21.6091 25.5615 21.5129 25.4003 21.5129 25.2262C21.5129 25.0456 21.6091 24.8845 21.7631 24.8007L24.7796 23.1371L26.429 20.1002C26.5124 19.9455 26.6793 19.8488 26.8525 19.8488C27.0258 19.8488 27.1927 19.9455 27.2761 20.1002L28.9255 23.1371L31.942 24.8007C32.096 24.8845 32.1922 25.0456 32.1922 25.2262C32.1922 25.4003 32.096 25.5615 31.942 25.6453L28.9255 27.3024L27.2761 30.3393C27.1927 30.494 27.0258 30.5907 26.8525 30.5907C26.6793 30.5907 26.5124 30.494 26.429 30.3393Z" fill="#FF7A00"/>
<path d="M2.36823 14.1425L4.53106 12.9561L5.71197 10.7832C5.79537 10.6284 5.95582 10.5317 6.13554 10.5317C6.30883 10.5317 6.46928 10.6284 6.55272 10.7832L7.73359 12.9561L9.89642 14.1425C10.0504 14.2263 10.1467 14.3875 10.1467 14.568C10.1467 14.7421 10.0504 14.9033 9.89642 14.9871L7.73359 16.1735L6.55272 18.3464C6.46928 18.5012 6.30883 18.5979 6.13554 18.5979C5.95582 18.5979 5.79537 18.5012 5.71197 18.3464L4.53106 16.1735L2.36823 14.9871C2.2142 14.9033 2.11792 14.7421 2.11792 14.568C2.11792 14.3875 2.2142 14.2263 2.36823 14.1425Z" fill="#FF7A00"/>
<path d="M34.5476 16.9666L36.2355 16.0317L37.1661 14.3359C37.333 14.02 37.84 14.02 38.0069 14.3359L38.9375 16.0317L40.6318 16.9666C40.7858 17.0504 40.8821 17.2116 40.8821 17.3921C40.8821 17.5662 40.7858 17.7274 40.6318 17.8112L38.9375 18.7462L38.0069 20.4484C37.8237 20.788 37.3441 20.7785 37.1661 20.4484L36.2355 18.7462L34.5476 17.8112C34.3936 17.7274 34.2973 17.5662 34.2973 17.3921C34.2973 17.2116 34.3936 17.0504 34.5476 16.9666Z" fill="#FF7A00"/>
</svg>
