<svg width="42" height="52" viewBox="0 0 42 52" fill="none" xmlns="http://www.w3.org/2000/svg">
<path fill-rule="evenodd" clip-rule="evenodd" d="M25.9586 0C22.8218 1.47355 18.6828 3.15575 14.0464 3.5737C13.5509 3.6179 13.1782 4.01115 13.1906 4.4759C13.314 9.07855 13.4249 14.926 14.3089 17.5299C15.9331 22.5823 20.4632 26.663 25.8241 28.2256C26.0197 28.2822 26.2047 28.2808 26.3996 28.2217C31.7802 26.5844 36.0196 22.5842 37.7121 17.5324C38.8139 14.2473 38.7516 9.087 38.827 4.47135C38.8343 4.0092 38.4628 3.62115 37.9693 3.57695C33.3145 3.1629 29.1585 1.47745 26.0105 0H25.9586ZM23.1958 12.1589L25.0307 14.079L29.276 9.96385C29.6244 9.62585 30.1868 9.63235 30.5274 9.97685L31.7651 11.2294C32.1064 11.5745 32.0998 12.1316 31.752 12.4696L26.2152 17.836L25.5721 18.4594C25.3956 18.631 25.1803 18.7148 24.9329 18.7096C24.6855 18.7038 24.4748 18.6101 24.3062 18.4307L23.69 17.7775L20.6187 14.545C20.2853 14.194 20.3057 13.637 20.6614 13.3075L21.9437 12.1173C22.1215 11.9522 22.3348 11.8729 22.5783 11.8813C22.8224 11.8891 23.0285 11.984 23.1958 12.1589ZM23.7864 31.0804L34.5601 28.9737C36.2847 28.5942 37.3748 28.8333 37.5782 29.7921L25.2039 32.2309C25.1685 32.238 25.1357 32.2322 25.1062 32.2121L23.7398 31.3157C23.6946 31.2864 23.6729 31.2351 23.6834 31.1824C23.6939 31.1298 23.7333 31.0908 23.7864 31.0804ZM6.26325 25.8421C8.82197 24.1982 11.6412 24.3041 13.9735 25.3799C15.4973 26.0826 16.651 27.4918 18.0712 28.34L21.5801 30.2906C23.4176 31.2969 22.4864 33.8624 20.79 33.4854L17.1399 33.0154C16.6924 32.9583 16.3177 32.8178 15.9515 32.5565L11.9077 29.664C11.5224 29.3579 11.0572 29.965 11.506 30.2614L15.6017 33.3184C15.9659 33.59 16.5913 33.8221 17.0435 33.8839L20.6843 34.3811C21.9378 34.554 23.0042 33.9944 23.3914 32.6189C23.4025 32.5787 23.4294 32.5488 23.4688 32.5331C23.5082 32.5176 23.5482 32.5201 23.5843 32.5416L24.6527 33.1688C24.6822 33.1857 24.7131 33.1909 24.7465 33.1844L39.0488 30.2458C42.1555 29.679 43.3007 33.4282 40.049 34.2076L24.7373 39.0325C22.3709 39.778 20.0931 40.0088 17.7634 39.1586L10.2185 36.4058C9.54844 36.1614 8.83969 36.1679 8.24972 36.5671L1.11628 41.39C0.736313 41.6474 0 41.7957 0 41.0514V31.5406C0 30.3719 0.294656 29.8227 0.821625 29.3891C2.40384 28.0878 5.61291 26.26 6.26325 25.8421ZM25.9711 3.57695C23.6283 4.6774 20.5367 5.9345 17.0743 6.2465C16.7042 6.27965 16.4259 6.57345 16.4351 6.92055C16.527 10.3584 16.6103 14.7257 17.2705 16.6699C18.4833 20.4438 21.8669 23.4916 25.8713 24.659C26.017 24.7013 26.1555 24.7 26.3005 24.6558C30.3201 23.4331 33.4858 20.4451 34.7498 16.6725C35.5727 14.2188 35.5268 10.3643 35.5825 6.9173C35.5884 6.5715 35.3108 6.2816 34.9427 6.2491C31.4652 5.93905 28.3612 4.68065 26.0098 3.57695H25.9711Z" fill="#FF7A00"/>
</svg>
